# xmcd CD database file
#
# Track frame offsets:
#	150
#	17352
#	32515
#	45900
#	63982
#	83656
#	101068
#	118079
#	130582
#	150710
#	164550
#	180393
#	191197
#	202787
#	222540
#	236923
#
# Disc length: 3399 seconds
#
# Revision: 0
# Processed by: cddbd v1.5.2PL0 Copyright (c) Steve Scherf et al.
# Submitted via: CDex 1.51
#
DISCID=cf0d4510
DTITLE=Boilermaker Jazz Band - Swingin' the Season
DYEAR=2007
DGENRE=Jazz
TTITLE0=I've Got My Love to Keep Me Warm
TTITLE1=Let it Snow
TTITLE2=We Three Kings
TTITLE3=Winter Wonderland
TTITLE4=Blue Christmas
TTITLE5=Feliz Navidad
TTITLE6=Home for the Holidays
TTITLE7=Jingle Bells
TTITLE8=Santa Baby
TTITLE9=Boogie Woogie Santa Claus
TTITLE10=I'll Be Home for Christmas
TTITLE11=Holly Jolly Christmas
TTITLE12=Hanukkah, Oh Hanukkah
TTITLE13=What are You Doing New Year's Eve
TTITLE14=It Came Upon a Midnight Clear
TTITLE15=White Christmas
EXTD=YEAR: 2007
EXTT0=
EXTT1=
EXTT2=
EXTT3=
EXTT4=
EXTT5=
EXTT6=
EXTT7=
EXTT8=
EXTT9=
EXTT10=
EXTT11=
EXTT12=
EXTT13=
EXTT14=
EXTT15=
PLAYORDER=
